<?xml version="1.0" standalone="no"?>
<!DOCTYPE svg PUBLIC "-//W3C//DTD SVG 20010904//EN"
 "http://www.w3.org/TR/2001/REC-SVG-20010904/DTD/svg10.dtd">
<svg version="1.0" xmlns="http://www.w3.org/2000/svg"
 width="500.000000pt" height="500.000000pt" viewBox="0 0 500.000000 500.000000"
 preserveAspectRatio="xMidYMid meet">

<defs>
  <linearGradient id="grad" gradientUnits="userSpaceOnUse" x1="0" y1="0" x2="500" y2="500">
    <stop offset="0%" style="stop-color:#3B050B" />
    <stop offset="20%" style="stop-color:#610209" />
    <stop offset="40%" style="stop-color:#830411" />
    <stop offset="60%" style="stop-color:#99091A" />
    <stop offset="100%" style="stop-color:#CF132A" />
  </linearGradient>
</defs>

<g transform="translate(0.000000,500.000000) scale(0.100000,-0.100000)" fill="url(#grad)" stroke="none">
<path d="M388 2493 c-54 -34 -88 -62 -88 -73 0 -10 34 -38 91 -73 50 -32 94 -57 99 -57 8 0 23 31 18 35 -2 1 -36 23 -77 48 l-74 46 74 47 c41 26 75 48 77 49 7 5 -11 35 -22 35 -6 0 -50 -26 -98 -57z"/>
<path d="M643 2680 c-38 -23 -60 -55 -69 -98 -8 -40 9 -62 47 -62 23 0 32 6 40 28 20 50 26 57 48 60 55 8 67 -49 20 -94 -39 -37 -59 -75 -59 -113 0 -56 73 -67 86 -13 4 15 26 48 50 74 39 42 44 52 44 95 0 60 -16 91 -59 120 -42 29 -104 30 -148 3z"/>
<path d="M682 2288 c-30 -30 -3 -82 40 -76 29 4 47 50 28 72 -15 19 -51 21 -68 4z"/>
<path d="M927 2543 c-16 -16 -3 -31 63 -72 39 -24 70 -47 70 -51 0 -4 -31 -27 -70 -50 -68 -41 -85 -65 -56 -76 18 -7 190 106 194 126 1 9 -31 37 -88 73 -92 58 -101 62 -113 50z"/>
<path d="M1440 2550 c0 -18 7 -20 55 -20 l55 0 0 -91 c0 -88 1 -90 23 -87 21 3 22 8 25 91 l3 87 54 0 c48 0 55 2 55 20 0 19 -7 20 -135 20 -128 0 -135 -1 -135 -20z"/>
<path d="M1751 2528 c27 -55 58 -88 81 -88 15 0 18 -8 18 -45 0 -38 3 -45 20 -45 17 0 20 7 20 44 0 38 3 45 25 50 16 4 35 24 55 59 35 62 36 67 10 67 -12 0 -28 -13 -40 -32 -30 -51 -38 -58 -76 -58 -31 0 -38 5 -62 45 -19 31 -34 44 -50 45 l-22 0 21 -42z"/>
<path d="M2040 2550 c0 -19 7 -20 98 -20 98 0 126 -9 115 -36 -4 -11 -30 -14 -110 -14 l-104 0 3 -62 c2 -50 6 -63 21 -66 14 -3 17 4 17 42 l0 46 90 0 c77 0 93 3 110 20 27 27 25 56 -5 85 -23 23 -31 25 -130 25 -98 0 -105 -1 -105 -20z"/>
<path d="M2350 2460 c0 -103 1 -110 20 -110 19 0 20 7 20 110 0 103 -1 110 -20 110 -19 0 -20 -7 -20 -110z"/>
<path d="M2460 2460 c0 -103 1 -110 20 -110 19 0 20 7 20 90 0 50 4 90 8 90 12 0 54 -48 91 -102 38 -57 66 -78 103 -78 l28 0 0 111 c0 100 -2 110 -17 107 -15 -3 -18 -17 -21 -91 -2 -64 -6 -87 -15 -84 -7 2 -34 36 -62 75 -49 71 -91 102 -134 102 -20 0 -21 -5 -21 -110z"/>
<path d="M2850 2561 c-37 -10 -64 -70 -56 -125 10 -66 33 -80 131 -84 74 -4 85 -2 104 17 26 26 27 65 1 91 -16 16 -33 20 -80 20 -53 0 -60 -2 -60 -20 0 -16 8 -19 58 -22 49 -3 57 -6 57 -23 0 -18 -8 -20 -72 -23 -68 -3 -73 -1 -89 23 -20 31 -12 90 16 105 10 5 57 10 104 10 79 0 86 2 86 20 0 19 -6 20 -87 19 -49 -1 -99 -4 -113 -8z"/>
<path d="M3240 2550 c0 -18 7 -20 55 -20 l55 0 0 -90 c0 -83 1 -90 20 -90 19 0 20 7 20 90 l0 90 55 0 c48 0 55 2 55 20 0 19 -7 20 -130 20 -123 0 -130 -1 -130 -20z"/>
<path d="M3550 2460 c0 -103 1 -110 20 -110 19 0 20 7 20 110 0 103 -1 110 -20 110 -19 0 -20 -7 -20 -110z"/>
<path d="M3667 2563 c-4 -3 -7 -53 -7 -110 0 -85 3 -103 15 -103 12 0 15 14 15 69 0 39 4 72 8 75 5 3 22 -24 40 -59 17 -35 43 -72 57 -81 22 -14 27 -15 48 -2 12 9 35 43 51 77 16 33 33 61 38 61 4 0 8 -31 8 -70 0 -63 2 -70 20 -70 19 0 20 7 20 99 0 78 -3 101 -16 112 -24 19 -40 4 -88 -86 -23 -44 -49 -81 -57 -83 -10 -2 -31 28 -63 88 -45 85 -67 106 -89 83z"/>
<path d="M4040 2460 c0 -103 1 -110 20 -110 19 0 20 7 20 110 0 103 -1 110 -20 110 -19 0 -20 -7 -20 -110z"/>
<path d="M4150 2460 c0 -103 1 -110 20 -110 19 0 20 7 20 90 0 50 4 90 8 90 12 0 65 -59 100 -111 31 -47 75 -74 109 -67 16 3 18 14 18 108 0 92 -2 105 -17 108 -16 3 -18 -6 -18 -88 0 -114 -11 -116 -81 -15 -49 70 -94 105 -136 105 -23 0 -23 -2 -23 -110z"/>
<path d="M4544 2560 c-36 -14 -54 -50 -54 -105 1 -81 32 -105 137 -105 85 0 113 16 113 65 0 47 -29 65 -103 65 -50 0 -58 -2 -55 -17 2 -14 15 -19 58 -21 62 -4 79 -14 60 -37 -19 -23 -141 -21 -163 3 -23 25 -21 78 3 102 17 17 33 20 110 20 83 0 90 1 90 20 0 19 -6 20 -87 19 -49 0 -98 -4 -109 -9z"/>
</g>
</svg>